<svg viewBox="0 0 200 200" xmlns="http://www.w3.org/2000/svg">
  <!-- Cercle principal avec sections colorées -->
  <defs>
    <linearGradient id="grad1" x1="0%" y1="0%" x2="100%" y2="100%">
      <stop offset="0%" style="stop-color:#1e3a8a;stop-opacity:1" />
      <stop offset="50%" style="stop-color:#0ea5e9;stop-opacity:1" />
    </linearGradient>
    <linearGradient id="grad2" x1="0%" y1="0%" x2="100%" y2="100%">
      <stop offset="0%" style="stop-color:#ef4444;stop-opacity:1" />
      <stop offset="100%" style="stop-color:#f97316;stop-opacity:1" />
    </linearGradient>
    <linearGradient id="grad3" x1="0%" y1="0%" x2="100%" y2="100%">
      <stop offset="0%" style="stop-color:#f59e0b;stop-opacity:1" />
      <stop offset="100%" style="stop-color:#eab308;stop-opacity:1" />
    </linearGradient>
    <linearGradient id="pencilGrad" x1="0%" y1="0%" x2="100%" y2="100%">
      <stop offset="0%" style="stop-color:#f59e0b;stop-opacity:1" />
      <stop offset="50%" style="stop-color:#f97316;stop-opacity:1" />
      <stop offset="100%" style="stop-color:#1e3a8a;stop-opacity:1" />
    </linearGradient>
    <linearGradient id="orbitalGrad" x1="0%" y1="0%" x2="100%" y2="100%">
      <stop offset="0%" style="stop-color:#1e3a8a;stop-opacity:1" />
      <stop offset="50%" style="stop-color:#0ea5e9;stop-opacity:1" />
      <stop offset="100%" style="stop-color:#f59e0b;stop-opacity:1" />
    </linearGradient>
  </defs>
  
  <!-- Cœur principal - forme de diamant avec étoile -->
  <g transform="translate(100,100)">
    <!-- Section bleue foncée (haut) -->
    <path d="M 0,-40 L 30,-20 L 0,0 L -30,-20 Z" fill="url(#grad1)"/>
    
    <!-- Section rouge (droite) -->
    <path d="M 0,0 L 30,-20 L 40,0 L 0,40 Z" fill="url(#grad2)"/>
    
    <!-- Section orange/jaune (bas) -->
    <path d="M 0,40 L -30,20 L 0,0 L 30,20 Z" fill="url(#grad3)"/>
    
    <!-- Section bleu clair (gauche) -->
    <path d="M 0,0 L -30,-20 L -40,0 L 0,40 Z" fill="url(#grad1)"/>
    
    <!-- Étoile centrale -->
    <g transform="scale(0.6)">
      <path d="M 0,-20 L 6,-6 L 20,0 L 6,6 L 0,20 L -6,6 L -20,0 L -6,-6 Z" fill="white" opacity="0.9"/>
    </g>
  </g>
  
  <!-- Crayon stylisé -->
  <g transform="translate(140,60) rotate(45)">
    <!-- Corps du crayon -->
    <rect x="-3" y="-25" width="6" height="35" fill="url(#pencilGrad)" rx="3"/>
    <!-- Pointe -->
    <polygon points="0,-25 -3,-30 3,-30" fill="#1e3a8a"/>
    <!-- Gomme -->
    <circle cx="0" cy="12" r="4" fill="#1e3a8a"/>
  </g>
  
  <!-- Orbite elliptique -->
  <ellipse cx="100" cy="100" rx="80" ry="40" fill="none" stroke="url(#orbitalGrad)" stroke-width="8" opacity="0.7" transform="rotate(-20 100 100)"/>
</svg>