<svg viewBox="0 0 200 200" xmlns="http://www.w3.org/2000/svg">
  <!-- Définition des dégradés -->
  <defs>
    <linearGradient id="heartBlue" x1="0%" y1="0%" x2="100%" y2="100%">
      <stop offset="0%" style="stop-color:#1e40af;stop-opacity:1" />
      <stop offset="50%" style="stop-color:#0ea5e9;stop-opacity:1" />
      <stop offset="100%" style="stop-color:#06b6d4;stop-opacity:1" />
    </linearGradient>
    <linearGradient id="heartRed" x1="0%" y1="0%" x2="100%" y2="100%">
      <stop offset="0%" style="stop-color:#ef4444;stop-opacity:1" />
      <stop offset="100%" style="stop-color:#f97316;stop-opacity:1" />
    </linearGradient>
    <linearGradient id="heartOrange" x1="0%" y1="0%" x2="100%" y2="100%">
      <stop offset="0%" style="stop-color:#f59e0b;stop-opacity:1" />
      <stop offset="100%" style="stop-color:#eab308;stop-opacity:1" />
    </linearGradient>
    <linearGradient id="pencilBody" x1="0%" y1="0%" x2="100%" y2="100%">
      <stop offset="0%" style="stop-color:#f59e0b;stop-opacity:1" />
      <stop offset="50%" style="stop-color:#f97316;stop-opacity:1" />
      <stop offset="100%" style="stop-color:#1e40af;stop-opacity:1" />
    </linearGradient>
    <linearGradient id="orbital" x1="0%" y1="0%" x2="100%" y2="100%">
      <stop offset="0%" style="stop-color:#1e40af;stop-opacity:0.8" />
      <stop offset="33%" style="stop-color:#06b6d4;stop-opacity:0.8" />
      <stop offset="66%" style="stop-color:#f59e0b;stop-opacity:0.8" />
      <stop offset="100%" style="stop-color:#1e40af;stop-opacity:0.8" />
    </linearGradient>
  </defs>
  
  <!-- Forme de cœur/diamant principal -->
  <g transform="translate(100,90)">
    <!-- Section bleue supérieure gauche -->
    <path d="M -15,-35 Q -35,-50 -50,-35 Q -50,-15 -30,0 L 0,25 Z" fill="url(#heartBlue)"/>
    
    <!-- Section bleue supérieure droite -->
    <path d="M 15,-35 Q 35,-50 50,-35 Q 50,-15 30,0 L 0,25 Z" fill="url(#heartBlue)"/>
    
    <!-- Section rouge/orange centrale -->
    <path d="M 0,25 L 30,0 Q 40,10 35,25 Q 25,40 0,45 Q -25,40 -35,25 Q -40,10 -30,0 Z" fill="url(#heartRed)"/>
    
    <!-- Section orange/jaune inférieure -->
    <path d="M 0,45 Q -15,55 -25,45 Q -30,35 -20,30 L 0,35 L 20,30 Q 30,35 25,45 Q 15,55 0,45 Z" fill="url(#heartOrange)"/>
    
    <!-- Étoile centrale brillante -->
    <g transform="scale(0.4)">
      <path d="M 0,-25 L 8,-8 L 25,0 L 8,8 L 0,25 L -8,8 L -25,0 L -8,-8 Z" fill="white" opacity="0.95"/>
      <circle cx="0" cy="0" r="6" fill="white" opacity="0.8"/>
    </g>
  </g>
  
  <!-- Crayon créatif -->
  <g transform="translate(150,50) rotate(35)">
    <!-- Corps du crayon avec dégradé créatif -->
    <rect x="-4" y="-30" width="8" height="40" fill="url(#pencilBody)" rx="4"/>
    <!-- Pointe créative -->
    <polygon points="0,-30 -4,-36 4,-36" fill="#1e40af"/>
    <!-- Détail gomme -->
    <circle cx="0" cy="12" r="5" fill="#1e40af"/>
    <circle cx="0" cy="12" r="3" fill="#f59e0b"/>
  </g>
  
  <!-- Orbite créative elliptique -->
  <ellipse cx="100" cy="100" rx="90" ry="45" fill="none" stroke="url(#orbital)" stroke-width="6" opacity="0.7" transform="rotate(-15 100 100)"/>
  
  <!-- Petites étoiles créatives dispersées -->
  <g opacity="0.6">
    <path d="M 40,60 L 44,64 L 48,60 L 44,56 Z" fill="#f59e0b"/>
    <path d="M 160,140 L 164,144 L 168,140 L 164,136 Z" fill="#06b6d4"/>
    <circle cx="170" cy="80" r="2" fill="#ef4444"/>
    <circle cx="30" cy="150" r="2" fill="#1e40af"/>
  </g>
</svg>